<svg id="svg" version="1.1" width="1536" height="1024" viewBox="0 0 1536 1024" xmlns="http://www.w3.org/2000/svg"><path d="M249.346 117.779 C 236.781 127.558,215.700 144.113,202.500 154.568 C 154.740 192.396,156.683 191.000,151.805 191.000 C 149.407 191.000,146.445 191.701,145.223 192.557 C 143.047 194.081,143.000 194.552,143.000 214.934 C 143.000 232.398,143.247 235.960,144.529 237.024 C 145.735 238.025,155.450 238.183,190.529 237.772 L 235.000 237.251 235.004 247.375 C 235.007 255.729,235.357 258.073,237.004 260.774 C 238.985 264.025,239.000 265.974,239.000 528.524 L 239.000 793.000 229.565 793.000 C 219.076 793.000,215.849 793.866,211.627 797.814 C 206.448 802.656,206.000 805.053,206.000 827.953 L 206.000 848.971 175.359 849.236 C 148.431 849.468,144.594 849.696,143.699 851.114 C 143.140 852.002,142.964 853.464,143.309 854.364 C 143.889 855.875,179.588 856.000,612.075 856.000 L 1080.212 856.000 1082.079 858.373 C 1086.742 864.301,1080.168 864.000,1204.836 864.000 C 1282.817 864.000,1319.760 863.664,1321.685 862.939 C 1325.872 861.360,1330.887 856.065,1332.004 852.044 C 1332.618 849.835,1332.991 813.300,1332.994 755.066 C 1333.000 662.602,1332.978 661.587,1330.929 657.353 C 1329.713 654.842,1327.339 652.131,1325.179 650.788 L 1321.500 648.500 1256.500 648.000 L 1191.500 647.500 1191.000 472.500 L 1190.500 297.500 1188.233 292.900 C 1185.331 287.010,1179.837 281.509,1173.500 278.150 L 1168.500 275.500 880.514 275.000 C 596.618 274.507,592.522 274.472,592.154 272.562 C 591.949 271.497,592.101 265.084,592.491 258.312 C 593.188 246.234,593.246 246.000,595.566 246.000 C 598.529 246.000,604.352 240.980,605.998 237.005 L 607.243 234.000 634.466 234.000 C 660.688 234.000,661.759 233.924,663.555 231.939 C 666.461 228.728,665.821 222.431,662.310 219.684 C 660.775 218.483,651.415 210.862,641.511 202.750 L 623.503 188.000 607.410 188.000 L 591.318 188.000 559.909 179.582 C 542.634 174.952,516.575 167.786,502.000 163.659 C 487.425 159.531,459.075 151.598,439.000 146.028 C 418.925 140.459,397.100 134.381,390.500 132.522 C 367.646 126.085,273.133 100.000,272.664 100.000 C 272.404 100.000,261.911 108.001,249.346 117.779 M298.006 114.038 C 308.178 116.809,321.900 120.594,328.500 122.449 C 335.100 124.305,357.825 130.642,379.000 136.532 C 400.175 142.423,435.500 152.293,457.500 158.466 C 479.500 164.639,512.233 173.697,530.241 178.595 C 548.249 183.493,562.986 187.821,562.991 188.214 C 562.996 188.607,543.087 188.939,518.750 188.953 C 494.413 188.967,440.637 189.281,399.250 189.651 L 324.000 190.323 323.993 187.911 C 323.985 184.887,320.849 180.039,317.810 178.353 C 316.162 177.438,309.980 177.061,296.250 177.035 L 277.000 177.000 277.000 143.000 C 277.000 116.375,277.273 109.000,278.256 109.000 C 278.947 109.000,287.835 111.267,298.006 114.038 M270.000 144.000 L 270.000 177.000 256.750 177.035 C 247.903 177.059,242.732 177.497,241.190 178.353 C 238.026 180.108,235.015 184.929,235.007 188.250 L 235.000 191.000 201.300 191.000 C 182.243 191.000,168.013 190.624,168.550 190.134 C 169.072 189.658,177.600 182.934,187.500 175.193 C 197.400 167.452,211.350 156.497,218.500 150.848 C 242.488 131.897,269.317 111.000,269.660 111.000 C 269.847 111.000,270.000 125.850,270.000 144.000 M315.429 185.571 C 316.796 186.939,317.000 191.588,317.000 221.371 C 317.000 246.660,316.687 255.913,315.800 256.800 C 314.080 258.520,244.920 258.520,243.200 256.800 C 242.314 255.914,242.000 246.717,242.000 221.629 C 242.000 191.421,242.183 187.455,243.655 185.829 C 245.197 184.125,247.650 184.000,279.584 184.000 C 309.408 184.000,314.061 184.204,315.429 185.571 M618.775 211.250 L 618.500 227.500 545.500 228.110 C 505.350 228.446,439.087 229.065,398.250 229.486 L 324.000 230.252 324.000 213.626 L 324.000 197.000 359.750 196.856 C 379.413 196.777,426.775 196.416,465.000 196.053 C 503.225 195.691,553.524 195.306,576.775 195.198 L 619.050 195.000 618.775 211.250 M234.775 214.250 L 234.500 230.500 192.250 230.761 L 150.000 231.022 150.000 215.178 C 150.000 206.463,150.300 199.033,150.667 198.667 C 151.033 198.300,170.169 198.000,193.191 198.000 L 235.050 198.000 234.775 214.250 M653.750 221.909 C 656.087 223.842,658.000 225.778,658.000 226.212 C 658.000 226.645,650.851 227.000,642.113 227.000 L 626.227 227.000 625.831 224.250 C 625.614 222.738,625.612 216.457,625.827 210.293 L 626.218 199.087 637.859 208.740 C 644.262 214.050,651.413 219.975,653.750 221.909 M572.379 237.750 C 574.483 241.794,578.443 245.139,581.984 245.863 C 583.697 246.213,585.077 246.838,585.050 247.250 C 585.022 247.662,585.000 254.065,585.000 261.478 L 585.000 274.956 499.750 275.228 L 414.500 275.500 409.372 278.205 C 403.186 281.468,398.914 285.589,395.243 291.834 L 392.500 296.500 392.500 565.000 L 392.500 833.500 394.858 838.000 C 396.155 840.475,398.605 843.962,400.304 845.750 L 403.392 849.000 376.696 849.000 L 350.000 849.000 349.994 829.250 C 349.988 807.999,349.335 803.740,345.354 799.009 C 341.361 794.263,339.261 793.536,328.000 793.000 L 317.500 792.500 317.248 529.057 L 316.996 265.613 319.376 263.057 C 323.361 258.775,324.000 256.508,324.000 246.650 L 324.000 237.169 346.250 236.784 C 358.488 236.572,394.807 236.289,426.960 236.156 C 459.112 236.023,485.625 235.708,485.876 235.457 C 486.128 235.206,505.372 235.000,528.641 235.000 L 570.949 235.000 572.379 237.750 M596.703 237.524 C 595.164 238.878,592.801 240.263,591.453 240.601 C 588.035 241.459,584.580 240.412,581.297 237.524 L 578.500 235.063 589.000 235.063 L 599.500 235.063 596.703 237.524 M310.000 289.054 L 310.000 313.109 301.250 306.324 C 288.950 296.786,259.285 272.865,254.500 268.627 L 250.500 265.083 280.250 265.042 L 310.000 265.000 310.000 289.054 M276.201 295.522 C 292.315 308.459,305.613 319.374,305.752 319.778 C 306.049 320.643,303.277 322.347,276.639 337.668 C 265.563 344.039,255.825 349.796,255.000 350.461 C 254.175 351.126,251.813 352.681,249.750 353.917 L 246.000 356.163 246.000 314.082 C 246.000 290.937,246.203 272.000,246.451 272.000 C 246.699 272.000,260.086 282.585,276.201 295.522 M585.000 298.379 L 585.000 314.757 581.995 316.002 C 572.655 319.871,569.141 332.772,575.135 341.189 L 577.136 344.000 488.068 344.000 L 399.000 344.000 399.006 323.250 C 399.009 311.397,399.479 300.785,400.102 298.500 C 401.438 293.599,409.952 284.926,415.008 283.316 C 417.444 282.541,443.682 282.173,501.750 282.102 L 585.000 282.000 585.000 298.379 M1167.193 283.176 C 1172.328 284.714,1179.810 291.374,1182.122 296.461 C 1183.718 299.977,1183.959 303.319,1183.978 322.250 L 1184.000 344.000 893.000 344.000 C 732.950 344.000,602.000 343.786,602.000 343.524 C 602.000 343.262,602.898 341.575,603.996 339.774 C 606.392 335.844,606.656 328.170,604.536 324.069 C 602.718 320.555,597.643 316.199,594.423 315.391 C 592.031 314.791,592.000 314.633,592.000 303.031 C 592.000 296.568,592.286 289.191,592.636 286.640 L 593.272 282.000 878.270 282.000 C 1093.814 282.000,1164.225 282.287,1167.193 283.176 M435.091 306.099 C 431.846 307.384,430.070 309.917,430.032 313.316 C 429.987 317.270,431.436 319.524,434.962 320.984 C 442.938 324.288,449.543 315.008,443.750 308.637 C 441.016 305.629,438.293 304.831,435.091 306.099 M469.500 305.798 C 466.012 306.498,463.000 310.097,463.000 313.564 C 463.000 318.540,465.955 321.455,471.000 321.455 C 474.210 321.455,475.664 320.898,477.107 319.116 C 481.812 313.305,476.699 304.353,469.500 305.798 M501.357 305.992 C 496.768 307.843,494.526 314.498,497.282 318.087 C 502.333 324.666,512.054 321.648,511.968 313.527 C 511.932 310.110,510.515 307.867,507.316 306.163 C 504.805 304.826,504.283 304.811,501.357 305.992 M596.313 324.805 C 600.157 328.817,599.953 333.596,595.699 339.172 C 592.931 342.801,591.841 343.500,588.949 343.500 C 585.935 343.500,585.090 342.886,582.250 338.637 C 578.138 332.484,578.050 328.796,581.923 324.923 C 586.024 320.822,592.447 320.770,596.313 324.805 M310.000 365.115 L 310.000 405.230 307.250 403.439 C 305.738 402.454,292.153 392.449,277.062 381.207 L 249.624 360.766 254.562 357.849 C 257.278 356.245,270.247 348.678,283.381 341.035 C 296.516 333.391,307.743 326.657,308.331 326.069 C 308.919 325.481,309.535 325.000,309.700 325.000 C 309.865 325.000,310.000 343.052,310.000 365.115 M581.833 351.907 C 581.650 352.405,566.315 365.455,547.755 380.907 L 514.010 409.000 483.755 409.022 C 456.178 409.042,453.129 409.212,449.309 410.947 C 446.321 412.303,444.517 414.026,443.027 416.947 C 440.991 420.938,440.944 422.127,441.219 462.950 C 441.489 503.286,441.576 504.958,443.532 507.576 C 444.650 509.073,447.118 511.130,449.017 512.149 C 452.334 513.928,458.572 514.000,609.274 514.000 C 764.361 514.000,766.123 513.978,770.019 511.990 C 777.606 508.120,777.500 508.836,777.500 461.323 C 777.500 420.285,777.444 419.072,775.438 416.385 C 774.304 414.866,772.134 412.696,770.616 411.562 C 767.923 409.551,766.589 409.493,716.318 409.224 L 664.781 408.947 659.141 404.145 C 652.938 398.865,609.319 362.732,601.750 356.604 C 599.138 354.489,597.000 352.363,597.000 351.880 C 597.000 351.375,722.299 351.000,890.500 351.000 L 1184.000 351.000 1184.000 499.500 L 1184.000 648.000 1137.565 648.000 C 1107.101 648.000,1090.162 648.367,1088.315 649.067 C 1086.767 649.653,1084.445 651.116,1083.155 652.317 C 1077.599 657.489,1077.860 652.360,1077.948 754.579 L 1078.030 849.000 748.265 848.990 L 418.500 848.980 413.500 846.647 C 407.433 843.816,401.509 837.496,400.072 832.321 C 399.338 829.677,399.009 754.980,399.006 589.750 L 399.000 351.000 490.583 351.000 C 544.936 351.000,582.031 351.369,581.833 351.907 M597.853 362.339 C 602.059 365.826,616.451 377.751,629.835 388.839 L 654.169 409.000 589.484 409.000 L 524.799 409.000 556.650 382.509 C 574.167 367.939,588.884 356.014,589.353 356.009 C 589.823 356.004,593.648 358.853,597.853 362.339 M280.434 392.439 C 294.496 402.856,305.990 411.631,305.978 411.939 C 305.967 412.248,302.704 414.345,298.728 416.600 C 294.753 418.856,281.435 426.618,269.134 433.850 C 256.833 441.083,246.595 447.000,246.384 447.000 C 246.173 447.000,246.000 428.996,246.000 406.990 L 246.000 366.981 250.434 370.240 C 252.873 372.033,266.373 382.023,280.434 392.439 M858.459 400.873 C 853.440 403.161,849.381 407.871,847.996 413.017 C 846.698 417.836,846.703 570.747,848.001 576.503 C 849.055 581.180,851.601 584.763,855.990 587.750 L 859.296 590.000 982.498 590.000 L 1105.700 590.000 1109.681 587.116 C 1117.451 581.488,1117.000 587.200,1116.996 494.349 C 1116.993 414.548,1116.922 411.385,1115.081 408.366 C 1114.030 406.642,1111.480 403.942,1109.413 402.366 L 1105.656 399.500 984.078 399.266 C 867.824 399.041,862.323 399.112,858.459 400.873 M1103.904 407.265 C 1105.226 407.944,1107.251 409.770,1108.404 411.323 C 1110.486 414.127,1110.502 414.685,1110.767 494.573 C 1110.915 538.808,1110.754 575.000,1110.410 575.000 C 1110.067 575.000,1095.264 560.856,1077.515 543.568 C 1043.468 510.407,1042.487 509.657,1035.430 511.428 C 1034.009 511.785,1025.961 518.584,1017.544 526.538 C 1009.127 534.492,1001.938 541.000,1001.568 541.000 C 1001.199 541.000,989.107 529.688,974.698 515.861 C 960.289 502.035,947.150 489.887,945.500 488.865 C 943.850 487.843,940.918 487.006,938.984 487.004 C 932.251 486.997,934.577 484.921,871.234 547.455 L 853.968 564.500 854.234 489.323 C 854.498 414.765,854.517 414.123,856.596 411.323 C 857.749 409.770,859.774 407.944,861.096 407.265 C 862.964 406.305,890.021 406.029,982.500 406.029 C 1074.979 406.029,1102.036 406.305,1103.904 407.265 M768.077 418.923 L 771.000 421.846 771.000 460.973 C 771.000 502.083,770.734 504.737,766.455 506.379 C 765.565 506.720,694.653 507.000,608.873 507.000 L 452.909 507.000 450.455 504.545 L 448.000 502.091 448.000 462.593 C 448.000 421.339,448.207 419.182,452.364 417.170 C 453.805 416.472,505.028 416.113,609.827 416.068 L 765.154 416.000 768.077 418.923 M309.577 496.756 C 309.332 497.001,307.639 496.099,305.816 494.751 C 272.274 469.955,251.000 453.847,251.000 453.248 C 251.000 452.835,264.163 444.780,280.250 435.348 L 309.500 418.199 309.762 457.254 C 309.906 478.735,309.823 496.511,309.577 496.756 M1041.500 433.935 C 1033.977 435.767,1026.229 442.747,1023.905 449.787 C 1022.008 455.536,1023.265 466.291,1026.386 471.007 C 1034.380 483.086,1050.475 486.234,1061.907 477.953 C 1068.444 473.217,1071.385 467.884,1071.833 459.952 C 1072.327 451.209,1070.790 446.758,1065.219 440.803 C 1058.993 434.147,1050.605 431.718,1041.500 433.935 M1055.698 442.096 C 1066.498 447.324,1068.374 463.459,1059.091 471.270 C 1053.987 475.565,1048.799 476.502,1042.191 474.325 C 1026.656 469.206,1025.558 448.648,1040.459 441.880 C 1045.776 439.464,1050.397 439.530,1055.698 442.096 M280.964 485.000 C 294.664 495.175,305.884 503.725,305.896 504.000 C 305.908 504.275,299.299 508.408,291.209 513.184 C 283.119 517.960,269.983 525.723,262.019 530.434 C 254.054 535.145,247.191 539.000,246.769 539.000 C 246.346 539.000,246.000 520.984,246.000 498.965 L 246.000 458.930 251.027 462.715 C 253.791 464.797,267.263 474.825,280.964 485.000 M946.260 498.750 C 949.105 501.363,962.153 513.737,975.253 526.250 C 993.907 544.066,999.641 549.000,1001.693 549.000 C 1003.712 549.000,1007.547 545.832,1018.429 535.172 C 1034.638 519.294,1036.946 517.533,1040.201 518.558 C 1041.465 518.956,1047.450 524.064,1053.500 529.907 C 1104.387 579.061,1106.421 581.122,1104.963 582.044 C 1104.087 582.598,1054.787 582.976,982.173 582.985 L 860.846 583.000 857.923 580.077 C 856.315 578.469,855.000 576.293,855.000 575.241 C 855.000 573.463,872.477 555.736,919.599 509.721 C 938.324 491.435,938.301 491.444,946.260 498.750 M310.303 589.863 C 310.195 590.063,300.520 583.073,288.803 574.331 C 277.087 565.588,263.561 555.544,258.747 552.009 C 252.910 547.725,250.411 545.331,251.247 544.826 C 251.936 544.409,265.325 536.484,281.000 527.214 L 309.500 510.360 310.000 549.930 C 310.275 571.693,310.412 589.663,310.303 589.863 M443.040 547.452 C 442.377 548.251,441.991 549.713,442.181 550.702 C 442.513 552.425,450.023 552.500,621.500 552.500 C 792.977 552.500,800.487 552.425,800.819 550.702 C 801.775 545.740,811.706 546.000,621.500 546.000 C 467.766 546.000,444.085 546.193,443.040 547.452 M266.697 566.644 C 277.589 574.698,290.875 584.485,296.223 588.394 C 301.570 592.302,305.957 595.725,305.972 596.000 C 305.994 596.420,249.235 629.840,246.813 630.833 C 246.366 631.017,246.000 613.354,246.000 591.583 C 246.000 569.813,246.201 552.000,246.447 552.000 C 246.693 552.000,255.805 558.590,266.697 566.644 M442.384 580.442 C 442.080 581.234,441.988 582.697,442.179 583.692 C 442.513 585.425,447.891 585.500,571.905 585.500 C 691.554 585.500,701.361 585.375,702.333 583.834 C 703.096 582.625,703.023 581.733,702.070 580.584 C 700.883 579.154,688.244 579.000,571.846 579.000 C 460.504 579.000,442.862 579.196,442.384 580.442 M310.000 642.000 C 310.000 663.450,309.789 681.000,309.532 681.000 C 308.819 681.000,253.672 640.698,250.650 637.968 C 250.183 637.546,251.758 636.074,254.150 634.696 C 256.543 633.319,269.750 625.625,283.500 617.600 C 297.250 609.575,308.837 603.007,309.250 603.005 C 309.663 603.002,310.000 620.550,310.000 642.000 M456.450 639.407 C 454.773 640.137,452.186 642.179,450.700 643.944 L 448.000 647.153 448.000 703.542 L 448.000 759.930 451.093 763.453 C 452.794 765.390,455.831 767.455,457.843 768.041 C 460.323 768.764,483.885 769.010,531.045 768.804 C 608.406 768.466,603.648 768.905,608.044 761.696 C 609.913 758.630,609.993 756.251,609.996 703.398 L 610.000 648.296 607.730 644.898 C 602.913 637.687,606.498 637.999,529.000 638.041 C 473.477 638.071,458.887 638.345,456.450 639.407 M657.853 640.015 C 655.470 641.275,653.478 643.446,652.103 646.287 C 650.046 650.537,650.000 651.786,650.022 703.566 C 650.043 753.833,650.142 756.716,651.988 760.784 C 653.472 764.054,654.946 765.528,658.216 767.012 C 662.320 768.875,665.299 768.957,729.290 768.978 C 794.569 769.000,796.170 768.954,800.079 766.960 C 802.279 765.837,804.959 763.475,806.035 761.710 C 807.916 758.626,807.993 756.337,807.993 703.500 C 807.993 650.379,807.925 648.389,806.005 645.241 C 804.912 643.448,802.552 641.088,800.759 639.995 C 797.590 638.062,795.631 638.009,729.500 638.048 C 664.334 638.087,661.348 638.169,657.853 640.015 M854.853 640.015 C 852.452 641.284,850.477 643.449,849.070 646.355 C 846.957 650.720,846.937 651.375,847.217 704.635 C 847.488 756.261,847.582 758.636,849.478 761.771 C 850.566 763.570,853.296 765.933,855.544 767.021 C 859.495 768.934,861.920 769.000,928.000 769.000 C 994.990 769.000,996.454 768.958,1000.624 766.940 C 1003.734 765.434,1005.443 763.716,1006.973 760.555 C 1009.030 756.307,1009.062 755.284,1008.783 702.365 C 1008.511 650.568,1008.423 648.370,1006.500 645.113 C 1005.400 643.250,1002.932 640.888,1001.016 639.863 C 997.710 638.096,993.963 638.002,928.016 638.044 C 861.357 638.087,858.350 638.168,854.853 640.015 M266.593 658.638 C 277.542 666.688,290.874 676.476,296.220 680.388 C 301.566 684.299,305.944 687.725,305.948 688.000 C 305.955 688.424,286.390 700.195,253.750 719.405 L 246.000 723.966 246.000 683.983 C 246.000 661.992,246.154 644.000,246.343 644.000 C 246.531 644.000,255.644 650.587,266.593 658.638 M600.545 647.455 L 603.000 649.909 603.000 703.882 L 603.000 757.855 600.365 759.927 C 597.758 761.978,597.014 762.000,529.412 762.000 C 457.816 762.000,456.750 761.937,455.377 757.613 C 455.014 756.468,454.719 731.703,454.722 702.581 L 454.728 649.631 457.420 647.316 L 460.112 645.000 529.101 645.000 L 598.091 645.000 600.545 647.455 M798.545 647.455 L 801.000 649.909 801.000 703.500 L 801.000 757.091 798.545 759.545 L 796.091 762.000 729.156 762.000 C 664.749 762.000,662.132 761.928,659.861 760.089 L 657.500 758.178 657.224 705.359 C 657.032 668.705,657.283 651.730,658.045 649.891 C 658.649 648.434,660.123 646.768,661.321 646.189 C 662.776 645.486,685.541 645.113,729.795 645.068 L 796.091 645.000 798.545 647.455 M997.455 645.621 C 1001.862 647.312,1002.000 649.073,1002.000 703.500 C 1002.000 757.927,1001.862 759.688,997.455 761.379 C 995.355 762.185,862.222 762.166,859.210 761.359 C 854.082 759.986,854.000 759.083,854.000 704.199 C 854.000 671.144,854.369 652.240,855.053 650.278 C 855.632 648.618,857.094 646.781,858.303 646.197 C 860.689 645.044,994.508 644.490,997.455 645.621 M1321.633 656.772 C 1322.806 657.723,1324.269 659.483,1324.883 660.684 C 1326.428 663.705,1326.468 846.358,1324.925 850.785 C 1322.609 857.428,1330.858 857.000,1205.170 857.000 C 1091.940 857.000,1091.254 856.988,1088.669 854.955 C 1087.239 853.829,1085.606 851.242,1085.040 849.205 C 1084.370 846.792,1084.009 814.010,1084.006 755.218 C 1084.000 658.047,1083.883 660.297,1089.117 656.631 C 1091.237 655.146,1101.649 655.002,1205.473 655.022 C 1312.002 655.043,1319.640 655.158,1321.633 656.772 M1196.097 716.537 C 1188.344 736.082,1182.000 752.677,1182.000 753.415 C 1182.000 755.610,1184.683 757.277,1186.542 756.236 C 1187.448 755.729,1191.455 747.031,1195.446 736.907 C 1199.436 726.783,1205.904 710.653,1209.817 701.062 C 1217.259 682.825,1217.501 681.000,1212.475 681.000 C 1210.408 681.000,1208.873 684.331,1196.097 716.537 M1141.286 702.759 C 1130.376 711.702,1124.391 717.279,1124.189 718.692 C 1123.938 720.449,1127.153 723.491,1140.907 734.513 C 1158.257 748.416,1161.242 749.916,1161.764 744.991 C 1161.989 742.867,1159.893 740.805,1147.542 731.000 C 1139.575 724.675,1133.044 719.210,1133.028 718.856 C 1133.013 718.502,1139.525 712.934,1147.500 706.483 C 1158.462 697.615,1162.000 694.199,1162.000 692.484 C 1162.000 690.621,1160.350 689.000,1158.454 689.000 C 1158.244 689.000,1150.518 695.192,1141.286 702.759 M1237.075 690.409 C 1236.393 691.231,1235.985 692.588,1236.167 693.424 C 1236.350 694.261,1242.800 700.046,1250.500 706.281 C 1258.200 712.516,1264.500 718.094,1264.500 718.676 C 1264.500 719.258,1258.200 724.876,1250.500 731.162 C 1239.405 740.219,1236.500 743.099,1236.500 745.045 C 1236.500 749.487,1240.336 747.894,1252.067 738.581 C 1270.352 724.065,1275.000 720.005,1275.000 718.547 C 1275.000 717.150,1241.922 689.748,1239.583 689.207 C 1238.886 689.046,1237.758 689.587,1237.075 690.409 M310.000 734.615 L 310.000 774.230 307.286 772.451 C 305.793 771.473,292.216 761.470,277.115 750.222 C 257.259 735.432,250.051 729.543,251.079 728.947 C 251.861 728.493,265.100 720.676,280.500 711.574 C 295.900 702.473,308.837 695.020,309.250 695.013 C 309.663 695.006,310.000 712.827,310.000 734.615 M291.678 769.853 C 299.476 775.667,305.668 780.729,305.438 781.101 C 305.207 781.474,300.560 784.303,295.109 787.389 L 285.200 793.000 265.600 793.000 L 246.000 793.000 246.000 764.497 L 246.000 735.993 261.750 747.638 C 270.413 754.043,283.880 764.040,291.678 769.853 M1118.930 781.584 C 1117.977 782.733,1117.904 783.625,1118.667 784.834 C 1119.635 786.368,1126.567 786.500,1206.000 786.500 C 1285.433 786.500,1292.365 786.368,1293.333 784.834 C 1294.096 783.625,1294.023 782.733,1293.070 781.584 C 1291.889 780.161,1283.024 780.000,1206.000 780.000 C 1128.976 780.000,1120.111 780.161,1118.930 781.584 M310.000 790.000 C 310.000 792.946,309.907 793.000,304.833 793.000 C 299.193 793.000,299.188 792.788,304.741 789.374 C 309.615 786.377,310.000 786.423,310.000 790.000 M458.340 792.789 C 449.493 793.102,446.573 794.575,449.000 797.500 C 450.086 798.809,459.715 799.000,524.500 799.000 C 586.239 799.000,598.947 798.769,599.895 797.627 C 601.178 796.080,600.385 793.068,598.643 792.871 C 596.189 792.592,466.024 792.517,458.340 792.789 M655.512 792.866 C 652.079 793.612,650.914 796.733,653.393 798.545 C 654.604 799.431,672.661 799.629,726.251 799.344 C 765.438 799.135,798.063 798.762,798.750 798.514 C 800.649 797.828,800.243 794.200,798.141 793.075 C 796.069 791.967,660.567 791.768,655.512 792.866 M860.000 792.941 C 849.616 793.494,849.500 793.528,849.500 796.000 L 849.500 798.500 873.500 799.000 C 886.700 799.275,920.219 799.275,947.987 799.000 C 996.159 798.523,998.490 798.415,998.831 796.644 C 999.027 795.623,998.757 794.357,998.232 793.832 C 997.177 792.777,877.566 792.007,860.000 792.941 M339.234 802.916 L 342.500 805.832 342.821 827.416 L 343.142 849.000 278.071 849.000 L 213.000 849.000 213.000 827.900 L 213.000 806.800 216.400 803.400 L 219.800 800.000 277.884 800.000 L 335.968 800.000 339.234 802.916 M1118.930 812.584 C 1117.977 813.733,1117.904 814.625,1118.667 815.834 C 1119.631 817.362,1125.399 817.500,1188.500 817.500 C 1251.601 817.500,1257.369 817.362,1258.333 815.834 C 1259.096 814.625,1259.023 813.733,1258.070 812.584 C 1256.894 811.167,1249.557 811.000,1188.500 811.000 C 1127.443 811.000,1120.106 811.167,1118.930 812.584 " stroke="none" fill="black" fill-rule="evenodd"/></svg>