<svg width="1536" height="1024" viewBox="0 0 1536 1024" fill="none" xmlns="http://www.w3.org/2000/svg">
<path d="M323.437 125.857C326.772 125.992 342.271 130.848 346.229 132.036L388.825 144.847L540.84 190.022L586.042 203.467C591.845 205.192 609.807 210.899 614.7 211.154C630.854 211.994 649.635 211.504 666.007 211.559C672.982 220.422 685.928 237.951 691.754 247.068C677.373 247.553 661.817 247.115 647.257 247.21L647.243 262.626L634.521 262.694L634.471 289.425L1236.78 289.448L1236.82 665.353L1339.54 665.391L1339.69 861.713C1348.01 861.781 1375.26 860.49 1381.02 863.663L1380.45 864.556C1372.53 866.289 1335.14 865.583 1324.7 865.583L1199.88 865.576L526.07 865.546L300.604 865.614L226.595 865.538C219.22 865.538 191.016 866.604 186.341 864.361L186.061 862.883C186.395 862.59 186.73 862.298 187.064 862.005C202.793 861.653 247.405 861.75 260.251 861.742V807.677L295.105 807.595L295.075 382.56L295.083 291.189C295.02 276.28 294.43 262.389 294.593 247.253C265.423 246.248 229.919 247.225 200.215 247.295L200.204 211.49L213.232 211.535L323.437 125.857ZM634.836 294C634.9 305.263 634.895 316.527 634.82 327.789L647.708 327.788C647.59 333.783 647.642 339.78 647.861 345.773L647.824 348.859C647.652 352.369 648.185 354.093 646.449 356.604C643.738 357.325 642.582 357.153 639.819 357.079L633.685 357.302L632.563 357.417L626.342 357.12C623.631 357.151 621.875 357.403 619.375 356.371C617.897 354.397 618.308 351.547 618.305 348.88L618.233 345.747L618.376 327.851L631.098 327.792L631.073 294.014L425.265 294.045C425.284 306.329 424.498 334.363 425.547 345.758L425.329 348.854L425.385 862.437L1120.88 862.385L1121 666.127L1233.37 666.063L1233.26 348.912L1233.22 345.755C1233.38 328.516 1233.44 311.276 1233.41 294.036L634.836 294ZM361.397 807.632C370.697 807.715 379.998 807.744 389.299 807.722L389.348 861.721C399.938 861.781 410.531 861.766 421.122 861.668L421.154 646.471L421.218 289.422C490.44 289.517 561.493 290.229 630.61 289.383L630.56 262.708L617.965 262.7L617.979 247.209C533.52 247.136 446.53 248.408 362.415 247.133L361.397 807.632ZM356.658 774.871C351.247 778.382 307.083 806.135 306.494 807.392L307.037 807.767L357.562 807.64C357.51 803.851 358.117 776.597 356.658 774.871ZM299.02 729.44C298.582 753.431 298.094 783.394 298.946 807.198L334.193 784.932C340.988 780.543 349.078 775.592 355.527 770.888L318.75 743.641C314.179 740.259 303.751 732.16 299.02 729.44ZM356.962 685.048C338.085 698.392 319.309 711.879 300.637 725.506L325.134 743.596L357.404 767.437C357.47 758.98 358.127 687.326 356.962 685.048ZM298.784 639.423C298.646 666.916 298.72 694.408 299.004 721.9C308.461 715.05 321.582 706.175 330.438 699.115L355.643 681.198C343.422 671.927 331.095 662.798 318.663 653.813C313.271 649.865 304.225 642.8 298.784 639.423ZM356.959 594.953C337.959 608.433 319.055 622.046 300.246 635.791C308.486 641.441 316.575 647.306 324.506 653.382C334.522 660.677 347.086 670.36 357.267 676.968C357.513 668.827 358.028 597.072 356.959 594.953ZM298.973 549.796C298.373 558.908 298.715 570.912 298.743 580.235L298.942 632.147C309.177 624.412 320.607 616.802 330.461 609.176C338.76 603.07 347.141 597.078 355.604 591.201C343.836 582.391 332.013 573.652 320.139 564.986C314.367 560.746 304.875 553.359 298.973 549.796ZM356.779 505.58C338.236 518.495 318.885 533.353 300.45 545.702L324.44 563.447L357.373 587.378C357.496 579.069 358.173 507.484 356.779 505.58ZM298.909 460.061C298.76 487.55 298.767 515.04 298.932 542.528C308.521 534.786 320.314 526.767 330.503 519.525L355.628 501.571C342.673 491.829 329.635 482.198 316.52 472.675C313.199 470.246 301.937 461.674 298.909 460.061ZM356.924 415.712C337.951 428.905 319.175 442.379 300.604 456.131C308.889 462.285 318.258 469.554 326.642 475.39C335.945 482.085 348.331 491.859 357.446 497.804C357.461 488.889 357.981 417.884 356.924 415.712ZM298.931 370.169C298.39 394.17 298.002 428.666 299.048 452.494C310.106 444.464 321.322 436.137 332.479 428.287C340.236 422.705 348.023 417.161 355.837 411.657L318.566 384.173C313.849 380.707 303.461 372.705 298.931 370.169ZM356.63 325.479C338.679 338.419 317.913 352.735 300.572 366.151L326.236 385.005C336.57 392.679 346.953 400.288 357.383 407.831C357.457 399.492 358.311 327.392 356.63 325.479ZM298.969 280.011C298.707 307.513 298.684 335.018 298.898 362.521L331.626 338.708L355.687 321.398L318.283 293.689C313.395 290.115 303.886 282.849 298.969 280.011ZM357.494 276.251C338.74 276.103 319.984 276.114 301.229 276.284C306.898 280.763 353.577 315.941 357.433 317.179L357.494 276.251ZM326.521 195.808C338.398 195.788 350.494 195.658 362.35 195.8L362.455 211.566L522.011 211.554L572.204 211.567C579.063 211.569 591.641 211.949 598.208 211.387C583.033 206.117 563.391 200.928 547.675 196.289L452.468 168.075L371.385 143.845C358.722 140.051 338.903 133.564 326.517 130.723L326.521 195.808ZM322.256 131.867C312.27 139.521 222.383 207.606 221.622 211.308C221.611 211.363 221.636 211.419 221.644 211.475L294.541 211.537L294.488 195.77L322.524 195.785L322.572 152.615C322.574 148.385 322.789 135.283 322.256 131.867Z" fill="#838283"/>
<path d="M701.834 405.579C704.487 406.947 706.359 406.587 709.385 406.325C717.449 406.92 732.188 406.476 740.795 406.467L801.48 406.383C802.088 442.892 801.548 480.928 801.548 517.56L466.793 517.532C465.922 481.639 466.684 442.545 466.728 406.415C496.621 406.581 528.119 406.801 557.919 406.198C560.339 406.449 562.181 406.875 564.47 406.152C571.389 407.12 698.812 406.736 701.834 405.579Z" fill="#C6C6C6"/>
<path d="M634.423 293.246L1232.99 293.282C1233.03 310.522 1232.97 327.762 1232.81 345.001C1169.66 346.16 1102.06 345.017 1038.65 345.034L647.449 345.018C647.229 339.026 647.177 333.029 647.296 327.034L634.408 327.035C634.483 315.772 634.488 304.508 634.423 293.246Z" fill="#DFDFDF"/>
<path d="M424.852 293.291L630.661 293.26L630.685 327.038L617.963 327.096L617.821 344.993L425.134 345.004C424.085 333.609 424.872 305.574 424.852 293.291Z" fill="#DFDFDF"/>
<path d="M454.583 312.048L469.433 312.053L469.412 326.981L454.565 326.983L454.583 312.048Z" fill="#838283"/>
<path d="M489.781 312.033L504.414 312.053L504.434 326.966L489.82 327.021L489.781 312.033Z" fill="#838283"/>
<path d="M524.945 312.009L539.357 312.06L539.396 326.866L524.952 326.934L524.945 312.009Z" fill="#838283"/>
<path d="M1232.81 345.001L1232.85 348.158L647.412 348.104L647.449 345.018L1038.65 345.034C1102.07 345.017 1169.66 346.16 1232.81 345.001Z" fill="#B7B6B6"/>
<path d="M617.821 344.993L617.892 348.126L424.916 348.1L425.134 345.004L617.821 344.993Z" fill="#B7B6B6"/>
<path d="M633.272 356.548L639.408 356.325C662.135 373.176 686.276 389.864 709.385 406.325C706.359 406.587 704.487 406.947 701.834 405.579C678.884 389.371 656.029 373.027 633.272 356.548Z" fill="#B7B6B6"/>
<path d="M625.93 356.366L632.151 356.663C609.682 373.209 586.733 389.401 564.469 406.152C562.18 406.875 560.338 406.448 557.919 406.198L625.93 356.366Z" fill="#B7B6B6"/>
<path d="M884.707 403.552L1173.01 403.575L1173.04 616.048C1141.61 616.771 1107.85 616.158 1076.24 616.159L884.595 616.221L884.775 595.129L884.707 403.552Z" fill="#DFDFDF"/>
<path d="M973.522 505.252L1037.88 570.607L1082.22 526.259C1110.76 555.16 1143.49 588.342 1173.04 616.048C1141.61 616.771 1107.85 616.158 1076.24 616.159L884.595 616.221L884.775 595.129C912.862 565.358 944.467 534.297 973.522 505.252Z" fill="#B7B6B6"/>
<path d="M1097.05 443.534C1106.94 441.144 1116.9 447.196 1119.34 457.073C1121.77 466.951 1115.77 476.94 1105.9 479.423C1095.97 481.922 1085.91 475.868 1083.46 465.925C1081 455.981 1087.1 445.939 1097.05 443.534Z" fill="#B7B6B6"/>
<path d="M868.732 655.759L1026.79 655.739L1026.82 786.252C974.415 786.814 921.195 786.349 868.732 786.342V655.759Z" fill="#C6C6C6"/>
<path d="M663.823 655.713L821.452 655.754L821.505 786.297C769.305 786.867 716.096 786.327 663.819 786.312L663.823 655.713Z" fill="#C6C6C6"/>
<path d="M466.781 655.746L618.72 655.696L618.658 786.259C568.363 786.845 517.034 786.342 466.673 786.327L466.781 655.746Z" fill="#C6C6C6"/>
<path d="M466.711 560.255L801.412 560.301L801.42 568.178L548.215 568.212C539.595 568.208 471.357 569.074 467.432 567.603C466.07 565.231 466.651 563.388 466.711 560.255Z" fill="#838283"/>
<path d="M474.07 589.997L673.523 590.142C673.697 593.07 674.05 595.4 673.3 598.225C671.412 599.943 671.757 599.371 668.438 599.514L466.756 599.601C466.614 596.799 466.097 593.579 467.22 591.171C469.907 589.559 470.586 590.093 474.07 589.997Z" fill="#B7B6B6"/>
<path d="M868.942 810.866L974.175 810.851C985.905 810.843 1015.58 810.01 1026.1 811.196C1027.12 812.681 1026.84 815.584 1026.85 817.542L925.215 817.595C907.965 817.602 886.74 818.15 869.827 817.37C868.672 815.622 868.965 813.064 868.942 810.866Z" fill="#838283"/>
<path d="M664.015 810.925L765.592 810.805C779.31 810.798 807.847 809.928 820.657 811.135C821.857 813.243 821.437 814.849 821.482 817.564L720.258 817.579C703.852 817.602 680.759 818.292 664.859 817.369C663.535 814.976 664.021 813.971 664.015 810.925Z" fill="#838283"/>
<path d="M466.681 810.918L565.973 810.828C578.917 810.813 606.453 809.943 617.812 811.195C619.042 813.191 618.601 814.879 618.642 817.565L520.153 817.617C504.915 817.632 482.348 818.33 467.58 817.377C466.173 814.969 466.687 814.054 466.681 810.918Z" fill="#838283"/>
<path d="M1133 668.8C1158.35 667.725 1188.67 668.585 1214.37 668.589C1254.92 668.434 1295.46 668.504 1336 668.8C1336.6 691.325 1336.09 714.868 1336.06 737.479L1335.89 861.668L1325.81 861.795L1124.27 861.773L1124.06 668.818L1133 668.8Z" fill="#DFDFDF"/>
<path d="M1160.56 791.923L1257.7 791.961C1263.84 791.961 1293.57 791.563 1298.06 792.426C1299.19 793.866 1298.89 796.019 1298.89 797.97L1209.62 798.12C1196.03 798.135 1174.89 798.75 1161.92 797.812C1160.49 796.019 1160.83 794.587 1160.56 791.923Z" fill="#838283"/>
<path d="M1160.73 818.42L1225.47 818.427C1236.04 818.427 1249.64 818.067 1259.96 818.72C1260.98 820.003 1260.77 822.441 1260.91 824.414L1198 824.459C1186.89 824.466 1172.71 824.849 1161.8 824.174C1160.64 822.366 1160.9 820.79 1160.73 818.42Z" fill="#838283"/>
<path d="M1261.84 707.781C1268.2 712.046 1285.91 728.169 1292.08 733.651C1283.41 740.347 1271.33 751.218 1263.1 758.63L1262.18 758.855C1260.64 757.775 1260.59 757.872 1259.81 756.065C1261.19 752.269 1279.19 737.909 1284.02 733.43C1276.32 726.026 1267.24 719.688 1259.95 712.353C1259.69 710.306 1260.51 709.893 1261.84 707.781Z" fill="#838283"/>
<path d="M1197.05 708.043C1198.58 709.098 1198.76 709.493 1199.83 710.949C1199.18 714.351 1179.17 730.038 1175.17 733.38C1179.64 737.452 1197.89 751.984 1199.99 755.667C1199.21 757.873 1199.2 757.347 1197.08 759.088C1187.33 750.963 1177.16 741.785 1167.52 733.403L1197.05 708.043Z" fill="#838283"/>
<path d="M1239.44 703.627C1242.01 704.657 1242.54 704.33 1243.61 706.35C1235.9 724.957 1227.62 744.919 1219.35 763.236C1217.26 762.051 1217.05 761.968 1215.41 760.251C1216.47 756.027 1221.17 746.151 1223.16 741.5C1228.5 728.839 1233.93 716.214 1239.44 703.627Z" fill="#838283"/>
<path d="M362.373 215.324L655.399 215.412L655.323 243.381L362.38 243.35L362.373 215.324Z" fill="#DFDFDF"/>
<path d="M267.923 811.338C272.642 811.188 277.767 811.256 282.505 811.361C316.374 812.118 351.655 809.958 385.404 811.473L385.51 843.904C385.513 848.307 385.782 857.009 385.096 861.098L383.941 861.795L263.972 861.855C264.097 846.049 263.411 828.052 264.197 812.463C265.567 811.068 265.33 811.526 267.923 811.338Z" fill="#B7B6B6"/>
<path d="M298.229 199.517L358.732 199.51L358.592 272.325L298.275 272.341C298.4 248.066 298.385 223.792 298.229 199.517Z" fill="#DFDFDF"/>
<path d="M204.063 215.385C234.028 215.002 264.508 215.301 294.525 215.289L294.536 243.263L204.081 243.128C203.879 234.032 204.042 224.515 204.063 215.385Z" fill="#B7B6B6"/>
<path d="M658.723 215.263C662.648 215.183 663.763 214.708 666.163 217.89C672.365 226.117 678.505 234.586 684.262 243.127C675.88 243.302 667.494 243.339 659.11 243.234C659.188 234.031 658.888 224.49 658.723 215.263Z" fill="#DFDFDF"/>
</svg>
